<svg xmlns="http://www.w3.org/2000/svg"><symbol id="logo-m" viewBox="0 0 512 512"><path d="M256.001 512C397 512 512 397 512 256.001 512 115.001 397 0 256.001 0 115.001 0 0 115.001 0 256.001 0 397 115.001 512 256.001 512z" fill="#ffca4f"/><path d="M228.854 191.944h54.286l4.398 45.752 13.286 9.753 79.045 25.056s10.366 5.703 13.413 21.649c3.04 15.947 4.521 51.205 6.873 72.719-54.08 61.981-230.534 62.077-288.309.002 2.352-21.514 3.828-56.774 6.872-72.722 3.043-15.946 13.413-21.649 13.413-21.649l79.586-25.401 12.745-9.403 4.392-45.756z" fill="#fed198"/><path d="M285.529 216.787l.698 7.258c-4.042 4.706-8.205 9.203-12.139 13.534-4.459 4.908-32.053 4.996-36.558-.199-3.678-4.245-7.72-8.844-11.719-13.737l.692-7.209c3.772 4.377 7.563 8.5 11.027 12.32 4.505 4.963 32.099 4.879 36.558.189 3.709-3.902 7.619-7.941 11.441-12.156z" fill="#f0b97d"/><path d="M211.717 247.105l-79.588 25.4s-10.367 5.703-13.411 21.649c-3.043 15.947-4.521 51.207-6.872 72.722 57.775 62.074 234.23 61.979 288.309-.002-2.354-21.513-3.833-56.772-6.873-72.719-3.048-15.946-13.412-21.649-13.412-21.649l-79.046-25.057c-13.095 38.41-76.624 36.808-89.107-.344z" fill="#ff5b61"/><path d="M188.217 122.455c-17.025-3.019-2.511 47.826 9.925 40.246l6.673 19.597c6.012 17.654 21.174 33.728 32.715 46.453 4.505 4.965 32.099 4.881 36.558.19 12.779-13.438 27.961-28.535 33.662-46.742l6.107-19.498c12.453 7.572 26.937-43.262 9.924-40.246 1.18-39.578-26.807-77.976-67.78-78.152-40.975.176-68.963 38.574-67.784 78.152z" fill="#fed198"/><path d="M304.87 52.096c4.809-.559 22.183 15.31 24.266 33.688 2.086 18.378-1.081 37.32-1.081 37.32-12.729-1.59-10.286 21.246-10.286 21.246l-3.686.16-2.626-13.241c-15.227-9.542 6.007-47.244-9.226-50.552-26.068 21.472-64.738 29.418-98.481 23.903-9.47 1.264 4.309 13.234.311 27.003-2.945 5.144-1.188 13.25-1.188 13.25l-4.405.55s-2.727-23.033-11.222-22.936c-3.928-10.609-3.12-17.335-2.399-26.815 3.994-52.546 70.753-85.529 120.023-43.576z" fill="#666"/><path d="M112.324 281.977c88.601-11.582 123.861 10.65 143.676 28.152-29.448-16.953-85.965-15.833-141.187-5.966l-2.489-22.186zM399.673 281.977c-88.596-11.582-123.857 10.649-143.672 28.152 35.131-20.228 101.156-12.97 141.134-5.651l2.538-22.501z" fill="#fff"/><path d="M90.479 307.655c62.477-14.237 132.495-18.733 166.471.829 33.98-19.561 102.089-15.066 164.57-.829-3.577 122.917-.593 20.326-5.36 184.383-3.662-.691-102.408-15.377-150.139-1.055-7.947-.005-9.791-.005-17.77 0-52.404-15.242-148.976.407-152.417 1.055-4.921-169.39-1.66-57.037-5.355-184.383z" fill="#15bdb1"/><path d="M98.367 296.663l.951 9.766c60.354-12.811 125.922-16.135 158.451 2.594v-.001c-.114-.086-48.305-36.323-159.402-12.359z" fill="#dfe1e3"/><path d="M413.631 297.204l-.95 9.767c-60.357-12.811-125.921-16.135-158.452 2.594l-.001-.001c.115-.085 48.308-36.321 159.403-12.36z" fill="#dfe1e3"/><path d="M124.451 357.76l-17.402.93-17.322 1.226c-7.169.512-5.972 13.352 1.173 12.508l18.879-2.237 14.34-1.206c7.168-.608 5.149-11.481.332-11.221zm-2.39 39.946l-26.99 3.156c-5.79.673-4.396 13.572 1.171 12.504l27.074-5.209c5.654-1.088 4.457-11.118-1.255-10.451zm3.43-14.003c7.163-.671 8.625 10.393 1.486 11.305l-34.172 4.366c-7.135.912-8.328-11.834-1.169-12.502l33.855-3.169zm4.771-13.976c8.388-.785 9.557 11.719 1.172 12.505l-39.712 3.717c-8.383.785-9.552-11.719-1.173-12.503l39.713-3.719z" fill="#fed198"/><path d="M122.199 360.601l.612 6.535 4.359-.408c.732-2.449.423-4.76-.654-6.99l-4.317.863zM129.686 372.752l.694 7.421 4.07-.382c1.439-2.804 1.376-5.468-.743-7.937l-4.021.898zM124.251 386.624l.612 6.531 4.99-.466c.516-2.399.319-4.73-.655-6.989l-4.947.924zM120.162 401.062l.794 5.171 5.004-.857c.454-1.968.191-3.816-.85-5.532l-4.948 1.218z" fill="#fff"/><path d="M387.546 357.76l17.401.93 17.322 1.226c7.171.512 5.974 13.352-1.171 12.508l-18.881-2.237-14.337-1.206c-7.171-.608-5.149-11.481-.334-11.221zm2.39 39.946l26.992 3.156c5.79.673 4.393 13.572-1.172 12.504l-27.072-5.209c-5.657-1.088-4.461-11.118 1.252-10.451zm-3.431-14.003c-7.163-.671-8.624 10.393-1.484 11.305l34.17 4.366c7.135.912 8.33-11.834 1.171-12.502l-33.857-3.169zm-4.769-13.976c-8.388-.785-9.558 11.719-1.171 12.505l39.712 3.717c8.381.785 9.549-11.719 1.172-12.503l-39.713-3.719z" fill="#fed198"/><path d="M389.799 360.601l-.613 6.535-4.357-.408c-.734-2.449-.425-4.76.654-6.99l4.316.863zM382.313 372.752l-.695 7.421-4.07-.382c-1.441-2.804-1.376-5.468.744-7.937l4.021.898zM387.745 386.624l-.612 6.531-4.987-.466c-.517-2.399-.319-4.73.653-6.989l4.946.924zM391.837 401.062l-.796 5.171-5.003-.857c-.454-1.968-.191-3.816.85-5.532l4.949 1.218z" fill="#fff"/><path d="M248.45 490.98h17.573V304.391H248.45V490.98z" fill="#20d0c2"/></symbol><symbol id="logo-f" viewBox="0 0 512 512"><path d="M255.999 0c141.388 0 256 114.614 256 256s-114.612 256-256 256C114.615 512 .001 397.386.001 256S114.615 0 255.999 0z" fill="#ff757c"/><path d="M164.396 237.631c13.181-22.154 33.952-47.869 12.859-86.966C146.202 14.898 289.303-12.629 310.939 43.402c35.209 13.275 34.27 86.359 16.164 124.602-.807 15.736-17.169 29.461 12.4 70.063l2.128-.465-.002.002c-38.36 11.118-136.681 6-177.233.027z" fill="#666"/><path d="M230.178 209.017c-1.318 24.315-9.948 33.494-21.914 39.886-6.088 5.378-51.9 6.82-65.296 28.445-2.794 4.511-4.224 51.979-11.948 73.937 55.996 36.673 193.962 36.673 249.959 0-7.726-21.958-7.064-69.422-9.858-73.933-14.142-22.84-62.287-23.105-67.887-27.772-11.703-6.551-20.11-16.184-21.413-40.563 0 0-17.491 13.569-28.365 11.481-10.878-2.086-23.278-11.481-23.278-11.481z" fill="#fed198"/><path d="M229.594 215.654c6.374 3.792 17.004 15.661 26.952 15.796 9.913.134 23.874-14.523 25.867-15.604a92.174 92.174 0 0 1-.43-4.319l-.163.128-.009.007-.007.002c-.534.419-17.645 13.787-28.352 11.692-10.548-2.064-22.529-11.13-23.241-11.677l-.203-.154a90.79 90.79 0 0 1-.414 4.129z" fill="#f0b97d"/><path d="M201.996 169.14c10.79 23.107 14.781 32.129 28.182 42.516 0 0 12.4 9.573 23.277 11.703 10.874 2.125 28.365-11.703 28.365-11.703 13.403-10.387 17.39-19.409 28.18-42.516 2.646 1.409 5.411 3.32 7.556.858 2.148-2.463 12.367-34.429 10.528-38.741-1.839-4.315-3.634-1.563-6.372.39.143-.93-2.165 11.551-2.132 9.655.258-15.09-10.347-17.487-13.672-57.412-48.906 48.522-94.592 26.253-110.509 29.505-4.61.939-5.966 12.751-5.115 18.254-17.264-12.321 3.715 37.848 4.154 38.349 2.15 2.463 4.912.551 7.556-.858h.002z" fill="#fed198"/><path d="M208.257 248.894c-16.437 8.782-46.535-1.83-65.29 28.453-2.787 4.507-13.48 51.979-21.208 73.937 55.994 43.175 212.481 43.427 268.479 0-7.726-21.958-16.327-69.428-19.118-73.935-18.799-30.367-51.062-19.687-67.521-28.522l-45.885 93.794-49.459-93.728h.002z" fill="#0e7886"/><path d="M229.911 289.864c14.276 5.089 38.563 5.12 53.626-.02l-25.821 52.782-27.805-52.762z" fill="#fff"/><path d="M112.327 281.977c88.599-11.582 123.862 10.649 143.674 28.154-29.446-16.953-85.965-15.833-141.185-5.966l-2.489-22.188zM399.675 281.977c-88.599-11.582-123.859 10.647-143.674 28.151 35.134-20.229 101.156-12.971 141.136-5.651l2.538-22.5z" fill="#fff"/><path d="M90.479 307.655c62.479-14.237 132.496-18.732 166.472.829 33.977-19.561 102.089-15.066 164.57-.829-3.578 122.916-.593 20.326-5.36 184.384-3.66-.69-102.406-15.377-150.139-1.054-7.948-.004-9.79-.004-17.771 0-52.405-15.242-148.977.408-152.416 1.054-4.922-169.391-1.663-57.037-5.356-184.384z" fill="#15bdb1"/><path d="M98.368 296.664l.95 9.767c60.355-12.812 125.921-16.137 158.451 2.593l.002-.002c-.115-.088-48.306-36.323-159.401-12.36l-.002.002z" fill="#dfe1e3"/><path d="M413.634 297.206l-.95 9.767c-60.355-12.812-125.923-16.137-158.451 2.593l-.002-.002c.115-.086 48.306-36.323 159.404-12.36v.002z" fill="#dfe1e3"/><path d="M124.454 357.76l-17.403.93-17.321 1.226c-7.17.512-5.973 13.353 1.171 12.506l18.882-2.236 14.338-1.206c7.17-.606 5.148-11.48.333-11.22zm-2.393 39.948l-26.992 3.155c-5.79.672-4.394 13.571 1.171 12.504l27.073-5.208c5.658-1.09 4.461-11.12-1.252-10.451zm3.431-14.003c7.161-.67 8.623 10.394 1.486 11.306l-34.173 4.366c-7.135.913-8.33-11.833-1.171-12.504l33.858-3.168zm4.771-13.977c8.385-.785 9.556 11.719 1.171 12.504l-39.714 3.72c-8.383.785-9.551-11.719-1.171-12.504l39.714-3.72z" fill="#fed198"/><path d="M122.2 360.602l.611 6.535 4.357-.41c.734-2.447.423-4.758-.655-6.989l-4.315.862.002.002zM129.686 372.751l.692 7.422 4.07-.381c1.44-2.805 1.376-5.468-.743-7.937l-4.022.895.003.001zM124.253 386.624l.611 6.533 4.99-.467c.518-2.397.32-4.727-.655-6.987l-4.946.921zM120.163 401.063l.794 5.17 5.003-.858c.454-1.969.192-3.817-.849-5.532l-4.948 1.217v.003z" fill="#fff"/><path d="M387.547 357.76l17.403.93 17.321 1.226c7.17.512 5.973 13.353-1.171 12.506l-18.882-2.236-14.338-1.206c-7.171-.606-5.149-11.48-.333-11.22zm2.392 39.948l26.992 3.155c5.79.672 4.394 13.571-1.171 12.504l-27.073-5.208c-5.656-1.09-4.461-11.12 1.252-10.451zm-3.431-14.003c-7.161-.67-8.623 10.394-1.486 11.306l34.173 4.366c7.135.913 8.33-11.833 1.171-12.504l-33.858-3.168zm-4.771-13.977c-8.385-.785-9.556 11.719-1.171 12.504l39.714 3.72c8.383.785 9.551-11.719 1.171-12.504l-39.714-3.72z" fill="#fed198"/><path d="M389.8 360.602l-.611 6.535-4.359-.41c-.734-2.447-.423-4.758.655-6.989l4.315.862v.002zM382.312 372.751l-.692 7.422-4.07-.381c-1.44-2.805-1.376-5.468.743-7.937l4.022.895-.003.001zM387.747 386.624l-.611 6.533-4.99-.467c-.518-2.397-.32-4.727.655-6.987l4.946.921zM391.837 401.063l-.794 5.17-5.003-.858c-.454-1.969-.192-3.817.849-5.532l4.948 1.217v.003z" fill="#fff"/><path d="M248.45 304.392h17.573v186.589H248.45V304.392z" fill="#20d0c2"/></symbol></svg>