<svg version="1.1" xmlns="http://www.w3.org/2000/svg" xmlns:xlink="http://www.w3.org/1999/xlink" xml:space="preserve">
    <symbol id="logo-m" viewBox="0 0 512 512">
        <path style="fill:#FFCA4F;" d="M256.001,512C397,512,512,397,512,256.001C512,115.001,397,0,256.001,0
            C115.001,0,0,115.001,0,256.001C0,397,115.001,512,256.001,512z"/>
        <path style="fill:#FED198;" d="M228.854,191.944c18.097,0,36.191,0,54.286,0l4.398,45.752l13.286,9.753l79.045,25.056
            c0,0,10.366,5.703,13.413,21.649c3.04,15.947,4.521,51.205,6.873,72.719c-54.08,61.981-230.534,62.077-288.309,0.002
            c2.352-21.514,3.828-56.774,6.872-72.722c3.043-15.946,13.413-21.649,13.413-21.649l79.586-25.401l12.745-9.403L228.854,191.944
            L228.854,191.944z"/>
        <path style="fill:#F0B97D;" d="M285.529,216.787l0.698,7.258c-4.042,4.706-8.205,9.203-12.139,13.534
            c-4.459,4.908-32.053,4.996-36.558-0.199c-3.678-4.245-7.72-8.844-11.719-13.737l0.692-7.209c3.772,4.377,7.563,8.5,11.027,12.32
            c4.505,4.963,32.099,4.879,36.558,0.189C277.797,225.041,281.707,221.002,285.529,216.787L285.529,216.787z"/>
        <path style="fill:#FF5B61;" d="M211.717,247.105l-79.588,25.4c0,0-10.367,5.703-13.411,21.649
            c-3.043,15.947-4.521,51.207-6.872,72.722c57.775,62.074,234.23,61.979,288.309-0.002c-2.354-21.513-3.833-56.772-6.873-72.719
            c-3.048-15.946-13.412-21.649-13.412-21.649l-79.046-25.057C287.729,285.859,224.2,284.257,211.717,247.105L211.717,247.105z"/>
        <path style="fill:#FED198;" d="M188.217,122.455c-17.025-3.019-2.511,47.826,9.925,40.246l6.673,19.597
            c6.012,17.654,21.174,33.728,32.715,46.453c4.505,4.965,32.099,4.881,36.558,0.19c12.779-13.438,27.961-28.535,33.662-46.742
            l6.107-19.498c12.453,7.572,26.937-43.262,9.924-40.246c1.18-39.578-26.807-77.976-67.78-78.152
            C215.026,44.479,187.038,82.877,188.217,122.455L188.217,122.455z"/>
        <path style="fill:#666666;" d="M304.87,52.096c4.809-0.559,22.183,15.31,24.266,33.688c2.086,18.378-1.081,37.32-1.081,37.32
            c-12.729-1.59-10.286,21.246-10.286,21.246l-3.686,0.16l-2.626-13.241c-15.227-9.542,6.007-47.244-9.226-50.552
            c-26.068,21.472-64.738,29.418-98.481,23.903c-9.47,1.264,4.309,13.234,0.311,27.003c-2.945,5.144-1.188,13.25-1.188,13.25
            l-4.405,0.55c0,0-2.727-23.033-11.222-22.936c-3.928-10.609-3.12-17.335-2.399-26.815C188.841,43.126,255.6,10.143,304.87,52.096
            L304.87,52.096z"/>
        <path style="fill:#FFFFFF;" d="M112.324,281.977c88.601-11.582,123.861,10.65,143.676,28.152
            c-29.448-16.953-85.965-15.833-141.187-5.966L112.324,281.977L112.324,281.977z"/>
	    <path style="fill:#FFFFFF;" d="M399.673,281.977c-88.596-11.582-123.857,10.649-143.672,28.152
		    c35.131-20.228,101.156-12.97,141.134-5.651L399.673,281.977L399.673,281.977z"/>  
        <path style="fill:#15BDB1;" d="M90.479,307.655c62.477-14.237,132.495-18.733,166.471,0.829
            c33.98-19.561,102.089-15.066,164.57-0.829c-3.577,122.917-0.593,20.326-5.36,184.383c-3.662-0.691-102.408-15.377-150.139-1.055
            c-7.947-0.005-9.791-0.005-17.77,0c-52.404-15.242-148.976,0.407-152.417,1.055C90.913,322.648,94.174,435.001,90.479,307.655
            L90.479,307.655z"/>
        <path style="fill:#DFE1E3;" d="M98.367,296.663l0.951,9.766c60.354-12.811,125.922-16.135,158.451,2.594v-0.001
		    C257.655,308.936,209.464,272.699,98.367,296.663z"/>
	    <path style="fill:#DFE1E3;" d="M413.631,297.204l-0.95,9.767c-60.357-12.811-125.921-16.135-158.452,2.594l-0.001-0.001
		    C254.343,309.479,302.536,273.243,413.631,297.204L413.631,297.204z"/>
        <path style="fill:#FED198;" d="M124.451,357.76l-17.402,0.93l-17.322,1.226c-7.169,0.512-5.972,13.352,1.173,12.508l18.879-2.237
            l14.34-1.206C131.287,368.373,129.268,357.5,124.451,357.76z M122.061,397.706L122.061,397.706l-26.99,3.156
            c-5.79,0.673-4.396,13.572,1.171,12.504l27.074-5.209C128.97,407.069,127.773,397.039,122.061,397.706L122.061,397.706z
            M125.491,383.703L125.491,383.703c7.163-0.671,8.625,10.393,1.486,11.305l-34.172,4.366c-7.135,0.912-8.328-11.834-1.169-12.502
            L125.491,383.703L125.491,383.703z M130.262,369.727L130.262,369.727c8.388-0.785,9.557,11.719,1.172,12.505l-39.712,3.717
            c-8.383,0.785-9.552-11.719-1.173-12.503L130.262,369.727L130.262,369.727z"/>
        <path style="fill:#FFFFFF;" d="M122.199,360.601l0.612,6.535l4.359-0.408c0.732-2.449,0.423-4.76-0.654-6.99L122.199,360.601z"/>
        <path style="fill:#FFFFFF;" d="M129.686,372.752l0.694,7.421l4.07-0.382c1.439-2.804,1.376-5.468-0.743-7.937L129.686,372.752z"/>
        <path style="fill:#FFFFFF;" d="M124.251,386.624l0.612,6.531l4.99-0.466c0.516-2.399,0.319-4.73-0.655-6.989L124.251,386.624z"/>
        <path style="fill:#FFFFFF;" d="M120.162,401.062l0.794,5.171l5.004-0.857c0.454-1.968,0.191-3.816-0.85-5.532L120.162,401.062z"/>
        <path style="fill:#FED198;" d="M387.546,357.76l17.401,0.93l17.322,1.226c7.171,0.512,5.974,13.352-1.171,12.508l-18.881-2.237
            l-14.337-1.206C380.709,368.373,382.731,357.5,387.546,357.76L387.546,357.76z M389.936,397.706L389.936,397.706l26.992,3.156
            c5.79,0.673,4.393,13.572-1.172,12.504l-27.072-5.209C383.027,407.069,384.223,397.039,389.936,397.706L389.936,397.706z
            M386.505,383.703L386.505,383.703c-7.163-0.671-8.624,10.393-1.484,11.305l34.17,4.366c7.135,0.912,8.33-11.834,1.171-12.502
            L386.505,383.703L386.505,383.703z M381.736,369.727L381.736,369.727c-8.388-0.785-9.558,11.719-1.171,12.505l39.712,3.717
            c8.381,0.785,9.549-11.719,1.172-12.503L381.736,369.727z"/>
        <path style="fill:#FFFFFF;" d="M389.799,360.601l-0.613,6.535l-4.357-0.408c-0.734-2.449-0.425-4.76,0.654-6.99L389.799,360.601z"
		/>
        <path style="fill:#FFFFFF;" d="M382.313,372.752l-0.695,7.421l-4.07-0.382c-1.441-2.804-1.376-5.468,0.744-7.937L382.313,372.752
            L382.313,372.752z"/>
        <path style="fill:#FFFFFF;" d="M387.745,386.624l-0.612,6.531l-4.987-0.466c-0.517-2.399-0.319-4.73,0.653-6.989L387.745,386.624z"
            />
        <path style="fill:#FFFFFF;" d="M391.837,401.062l-0.796,5.171l-5.003-0.857c-0.454-1.968-0.191-3.816,0.85-5.532L391.837,401.062
            L391.837,401.062z"/>
        <path style="fill:#20D0C2;" d="M248.45,490.98h17.573V304.391H248.45V490.98z"/>
    </symbol>
    <symbol id="logo-f" viewBox="0 0 512 512">
        <path style="fill:#FF757C;" d="M255.999,0c141.388,0,256,114.614,256,256s-114.612,256-256,256C114.615,512,0.001,397.386,0.001,256
            S114.615,0,255.999,0z"/>
        <path style="fill:#666666;" d="M164.396,237.631c13.181-22.154,33.952-47.869,12.859-86.966
            C146.202,14.898,289.303-12.629,310.939,43.402c35.209,13.275,34.27,86.359,16.164,124.602c-0.807,15.736-17.169,29.461,12.4,70.063
            l2.128-0.465l-0.002,0.002C303.269,248.722,204.948,243.604,164.396,237.631z"/>
        <path style="fill:#FED198;" d="M230.178,209.017c-1.318,24.315-9.948,33.494-21.914,39.886c-6.088,5.378-51.9,6.82-65.296,28.445
            c-2.794,4.511-4.224,51.979-11.948,73.937c55.996,36.673,193.962,36.673,249.959,0c-7.726-21.958-7.064-69.422-9.858-73.933
            c-14.142-22.84-62.287-23.105-67.887-27.772c-11.703-6.551-20.11-16.184-21.413-40.563c0,0-17.491,13.569-28.365,11.481
            C242.578,218.412,230.178,209.017,230.178,209.017z"/>
        <path style="fill:#F0B97D;" d="M229.594,215.654c6.374,3.792,17.004,15.661,26.952,15.796c9.913,0.134,23.874-14.523,25.867-15.604
            c-0.172-1.382-0.315-2.822-0.43-4.319l-0.163,0.128l-0.009,0.007l-0.007,0.002c-0.534,0.419-17.645,13.787-28.352,11.692
            c-10.548-2.064-22.529-11.13-23.241-11.677l-0.203-0.154C229.898,212.953,229.757,214.331,229.594,215.654z"/>
        <path style="fill:#FED198;" d="M201.996,169.14c10.79,23.107,14.781,32.129,28.182,42.516c0,0,12.4,9.573,23.277,11.703
            c10.874,2.125,28.365-11.703,28.365-11.703c13.403-10.387,17.39-19.409,28.18-42.516c2.646,1.409,5.411,3.32,7.556,0.858
            c2.148-2.463,12.367-34.429,10.528-38.741c-1.839-4.315-3.634-1.563-6.372,0.39c0.143-0.93-2.165,11.551-2.132,9.655
            c0.258-15.09-10.347-17.487-13.672-57.412c-48.906,48.522-94.592,26.253-110.509,29.505c-4.61,0.939-5.966,12.751-5.115,18.254
            c-17.264-12.321,3.715,37.848,4.154,38.349c2.15,2.463,4.912,0.551,7.556-0.858H201.996z"/>
        <path style="fill:#0E7886;" d="M208.257,248.894c-16.437,8.782-46.535-1.83-65.29,28.453c-2.787,4.507-13.48,51.979-21.208,73.937
            c55.994,43.175,212.481,43.427,268.479,0c-7.726-21.958-16.327-69.428-19.118-73.935c-18.799-30.367-51.062-19.687-67.521-28.522
            l-45.885,93.794l-49.459-93.728H208.257z"/>
        <path style="fill:#FFFFFF;" d="M229.911,289.864c14.276,5.089,38.563,5.12,53.626-0.02l-25.821,52.782L229.911,289.864z"/>
        <path style="fill:#FFFFFF;" d="M112.327,281.977c88.599-11.582,123.862,10.649,143.674,28.154
            c-29.446-16.953-85.965-15.833-141.185-5.966L112.327,281.977z"/>
        <path style="fill:#FFFFFF;" d="M399.675,281.977c-88.599-11.582-123.859,10.647-143.674,28.151
            c35.134-20.229,101.156-12.971,141.136-5.651L399.675,281.977z"/>
        <path style="fill:#15BDB1;" d="M90.479,307.655c62.479-14.237,132.496-18.732,166.472,0.829
            c33.977-19.561,102.089-15.066,164.57-0.829c-3.578,122.916-0.593,20.326-5.36,184.384c-3.66-0.69-102.406-15.377-150.139-1.054
            c-7.948-0.004-9.79-0.004-17.771,0c-52.405-15.242-148.977,0.408-152.416,1.054C90.913,322.648,94.172,435.002,90.479,307.655z"/>
        <path style="fill:#DFE1E3;" d="M98.368,296.664l0.95,9.767c60.355-12.812,125.921-16.137,158.451,2.593l0.002-0.002
		    c-0.115-0.088-48.306-36.323-159.401-12.36L98.368,296.664z"/>
        <path style="fill:#DFE1E3;" d="M413.634,297.206l-0.95,9.767c-60.355-12.812-125.923-16.137-158.451,2.593l-0.002-0.002
            c0.115-0.086,48.306-36.323,159.404-12.36V297.206z"/>
        <path style="fill:#FED198;" d="M124.454,357.76l-17.403,0.93l-17.321,1.226c-7.17,0.512-5.973,13.353,1.171,12.506l18.882-2.236
            l14.338-1.206C131.291,368.374,129.269,357.5,124.454,357.76z M122.061,397.708L122.061,397.708l-26.992,3.155
            c-5.79,0.672-4.394,13.571,1.171,12.504l27.073-5.208C128.971,407.069,127.774,397.039,122.061,397.708z M125.492,383.705
            L125.492,383.705c7.161-0.67,8.623,10.394,1.486,11.306l-34.173,4.366c-7.135,0.913-8.33-11.833-1.171-12.504L125.492,383.705z
            M130.263,369.728L130.263,369.728c8.385-0.785,9.556,11.719,1.171,12.504l-39.714,3.72c-8.383,0.785-9.551-11.719-1.171-12.504
            L130.263,369.728z"/>
        <path style="fill:#FFFFFF;" d="M122.2,360.602l0.611,6.535l4.357-0.41c0.734-2.447,0.423-4.758-0.655-6.989l-4.315,0.862
		    L122.2,360.602z"/>
        <path style="fill:#FFFFFF;" d="M129.686,372.751l0.692,7.422l4.07-0.381c1.44-2.805,1.376-5.468-0.743-7.937l-4.022,0.895
            L129.686,372.751z"/>
        <path style="fill:#FFFFFF;" d="M124.253,386.624l0.611,6.533l4.99-0.467c0.518-2.397,0.32-4.727-0.655-6.987L124.253,386.624z"/>
        <path style="fill:#FFFFFF;" d="M120.163,401.063l0.794,5.17l5.003-0.858c0.454-1.969,0.192-3.817-0.849-5.532l-4.948,1.217V401.063
            z"/>
        <path style="fill:#FED198;" d="M387.547,357.76l17.403,0.93l17.321,1.226c7.17,0.512,5.973,13.353-1.171,12.506l-18.882-2.236
            l-14.338-1.206C380.709,368.374,382.731,357.5,387.547,357.76z M389.939,397.708L389.939,397.708l26.992,3.155
            c5.79,0.672,4.394,13.571-1.171,12.504l-27.073-5.208C383.031,407.069,384.226,397.039,389.939,397.708z M386.508,383.705
            L386.508,383.705c-7.161-0.67-8.623,10.394-1.486,11.306l34.173,4.366c7.135,0.913,8.33-11.833,1.171-12.504L386.508,383.705z
            M381.737,369.728L381.737,369.728c-8.385-0.785-9.556,11.719-1.171,12.504l39.714,3.72c8.383,0.785,9.551-11.719,1.171-12.504
            L381.737,369.728z"/>
        <path style="fill:#FFFFFF;" d="M389.8,360.602l-0.611,6.535l-4.359-0.41c-0.734-2.447-0.423-4.758,0.655-6.989l4.315,0.862V360.602
            z"/>
        <path style="fill:#FFFFFF;" d="M382.312,372.751l-0.692,7.422l-4.07-0.381c-1.44-2.805-1.376-5.468,0.743-7.937l4.022,0.895
            L382.312,372.751z"/>
        <path style="fill:#FFFFFF;" d="M387.747,386.624l-0.611,6.533l-4.99-0.467c-0.518-2.397-0.32-4.727,0.655-6.987L387.747,386.624z"
            />
        <path style="fill:#FFFFFF;" d="M391.837,401.063l-0.794,5.17l-5.003-0.858c-0.454-1.969-0.192-3.817,0.849-5.532l4.948,1.217
            V401.063z"/>
        <path style="fill:#20D0C2;" d="M248.45,304.392h17.573v186.589H248.45V304.392z"/>
    </symbol>
</svg>
